# xmcd CD database file
#
# Track frame offsets:
#	150
#	11847
#	25128
#	64008
#	78758
#	93158
#	106777
#	120449
#	137047
#	158108
#	172007
#	186780
#	199848
#	211094
#
# Disc length: 2967 seconds
#
# Revision: 0
# Processed by: cddbd v1.5.2PL0 Copyright (c) Steve Scherf et al.
# Submitted via: CDex 1.70beta2
#
DISCID=ac0b950e
DTITLE=benny goodman - Giants of jazz
DYEAR=2003
DGENRE=Jazz
TTITLE0=let's dance
TTITLE1=jersey bounce
TTITLE2=sing, sing, sing
TTITLE3=why don't you do right
TTITLE4=stompin' at the savoy
TTITLE5=darn that dream
TTITLE6=winter weather
TTITLE7=sometimes i'm happy
TTITLE8=benny rides again
TTITLE9=taking a chance on love
TTITLE10=blues in the night
TTITLE11=clarinet a la king
TTITLE12=goody goody
TTITLE13=ti-pi-tin
EXTD=YEAR: 2003
EXTT0=
EXTT1=
EXTT2=
EXTT3=
EXTT4=
EXTT5=
EXTT6=
EXTT7=
EXTT8=
EXTT9=
EXTT10=
EXTT11=
EXTT12=
EXTT13=
PLAYORDER=
